<?xml version="1.0" encoding="UTF-8" standalone="no"?>
<!DOCTYPE svg PUBLIC "-//W3C//DTD SVG 1.1//EN" "http://www.w3.org/Graphics/SVG/1.1/DTD/svg11.dtd">
<svg width="100%" height="100%" viewBox="0 0 500 500" version="1.1" xmlns="http://www.w3.org/2000/svg" xmlns:xlink="http://www.w3.org/1999/xlink" xml:space="preserve" xmlns:serif="http://www.serif.com/" style="fill-rule:evenodd;clip-rule:evenodd;stroke-linecap:round;stroke-linejoin:round;stroke-miterlimit:1.5;">
    <g transform="matrix(1,0,0,1,-1546.75,-540.116)">
        <g id="Vagina" transform="matrix(-0.21125,0,0,0.21125,2045.77,540.116)">
            <rect x="0" y="0" width="2362.2" height="2362.2" style="fill:none;"/>
            <g transform="matrix(5.47671,0,0,4.6961,-90.9635,-397.989)">
                <path d="M333.908,350.952C322.703,551.792 222.137,626.601 147.641,348.652C140.208,320.922 121.186,280.822 134.921,240.566C164.179,154.813 185.982,119.177 243.377,157.456C335.055,218.599 336.309,307.931 333.908,350.952Z" style="fill:rgb(255,172,31);"/>
                <clipPath id="_clip1">
                    <path d="M333.908,350.952C322.703,551.792 222.137,626.601 147.641,348.652C140.208,320.922 121.186,280.822 134.921,240.566C164.179,154.813 185.982,119.177 243.377,157.456C335.055,218.599 336.309,307.931 333.908,350.952Z"/>
                </clipPath>
                <g clip-path="url(#_clip1)">
                    <g transform="matrix(0.847057,0,0,0.847057,-1288.48,102.792)">
                        <path d="M1809.7,128.039C1798.93,124.524 1787.08,104.673 1778.69,87.754C1777.55,85.447 1775.22,84.33 1773.02,85.038C1770.81,85.745 1769.3,88.098 1769.33,90.761C1769.52,103.276 1768.82,118.596 1765.89,133.777C1759.1,168.973 1724.32,150.647 1772,271.586C1785.15,304.957 1811.09,401.363 1832.38,447.689C1832.38,447.689 1863.4,350.738 1862.71,239.831C1862.35,182.78 1866.41,146.553 1809.7,128.039Z" style="fill:rgb(255,139,37);"/>
                        <clipPath id="_clip2">
                            <path d="M1809.7,128.039C1798.93,124.524 1787.08,104.673 1778.69,87.754C1777.55,85.447 1775.22,84.33 1773.02,85.038C1770.81,85.745 1769.3,88.098 1769.33,90.761C1769.52,103.276 1768.82,118.596 1765.89,133.777C1759.1,168.973 1724.32,150.647 1772,271.586C1785.15,304.957 1811.09,401.363 1832.38,447.689C1832.38,447.689 1863.4,350.738 1862.71,239.831C1862.35,182.78 1866.41,146.553 1809.7,128.039Z"/>
                        </clipPath>
                        <g clip-path="url(#_clip2)">
                            <g transform="matrix(1.08471,0,0,1.11555,-155.723,-17.8301)">
                                <path d="M1816.7,229.946C1813.74,223.92 1807.42,221.137 1801.65,223.325C1795.88,225.512 1792.31,232.049 1793.14,238.88C1800.27,300.384 1813.33,403.296 1826.62,457.196C1864.22,374.69 1842.43,282.603 1816.7,229.946Z" style="fill:rgb(137,92,17);"/>
                            </g>
                        </g>
                        <path d="M1813.14,113.714C1810.65,112.902 1808.35,110.131 1805.83,107.013C1799.91,99.685 1794.3,89.5 1789.74,80.317L1785.99,75.013L1781.09,71.503L1775.5,69.995L1769.63,70.696L1764.28,73.597L1760.13,78.235L1757.47,84.173L1756.58,90.97C1756.58,90.99 1756.58,91.009 1756.58,91.028C1756.76,102.514 1756.13,116.579 1753.45,130.512C1751.92,138.405 1748.2,142.486 1745.14,147.069C1734.38,163.195 1722.79,182.357 1760.41,277.799C1773.62,311.329 1799.75,408.168 1821.13,454.715C1823.5,459.866 1828.23,462.924 1833.23,462.53C1838.23,462.137 1842.57,458.366 1844.33,452.891C1844.33,452.891 1876.18,353.466 1875.47,239.722C1875.23,202.024 1875.69,172.767 1863.44,150.84C1854.72,135.213 1839.84,122.433 1813.14,113.714ZM1809.7,128.039C1866.41,146.553 1862.35,182.78 1862.71,239.831C1863.4,350.738 1832.38,447.689 1832.38,447.689C1811.09,401.363 1785.15,304.957 1772,271.586C1724.32,150.647 1759.1,168.973 1765.89,133.777C1768.82,118.596 1769.52,103.276 1769.33,90.761C1769.3,88.098 1770.81,85.745 1773.02,85.038C1775.22,84.33 1777.55,85.447 1778.69,87.754C1787.08,104.673 1798.93,124.524 1809.7,128.039Z" style="fill:rgb(137,92,17);"/>
                    </g>
                    <g transform="matrix(0.918814,0,0,0.918814,-1417.28,85.0631)">
                        <path d="M1765.26,113.024C1767.51,129.317 1798.08,128.547 1789.64,105.882" style="fill:none;stroke:rgb(137,92,17);stroke-width:12.62px;"/>
                    </g>
                    <g transform="matrix(0.121072,-0.0130844,0.0171418,0.158615,189.357,222.908)">
                        <path d="M249.508,154.371C310.232,154.371 344.637,188.776 344.637,249.5C344.637,310.224 310.232,344.629 249.508,344.629C188.784,344.629 154.379,310.224 154.379,249.5C154.379,188.776 188.784,154.371 249.508,154.371Z" style="fill:rgb(137,92,17);"/>
                    </g>
                </g>
                <path d="M351.518,352.288C354.156,305.013 352.882,206.781 252.138,139.591C222.82,120.037 200.455,117.716 182.164,126.423C170.881,131.794 160.714,141.654 151.429,156.331C140.125,174.2 129.747,200.065 118.524,232.958C110.182,257.407 111.402,281.794 116.222,304.294C120.281,323.242 126.996,340.609 130.797,354.792C154.442,443.01 181.265,497.219 206.577,524.737C227.848,547.862 249.12,554.296 268.247,549.461C286.566,544.83 304.001,528.997 317.907,502.219C335.335,468.661 347.93,416.591 351.518,352.288ZM333.908,350.952C322.703,551.792 222.137,626.601 147.641,348.652C140.208,320.922 121.186,280.822 134.921,240.566C164.179,154.813 185.982,119.177 243.377,157.456C335.055,218.599 336.309,307.931 333.908,350.952Z"/>
            </g>
        </g>
    </g>
</svg>
