<?xml version="1.0" encoding="UTF-8" standalone="no"?>
<!DOCTYPE svg PUBLIC "-//W3C//DTD SVG 1.1//EN" "http://www.w3.org/Graphics/SVG/1.1/DTD/svg11.dtd">
<svg width="100%" height="100%" viewBox="0 0 500 500" version="1.1" xmlns="http://www.w3.org/2000/svg" xmlns:xlink="http://www.w3.org/1999/xlink" xml:space="preserve" xmlns:serif="http://www.serif.com/" style="fill-rule:evenodd;clip-rule:evenodd;stroke-linejoin:round;stroke-miterlimit:2;">
    <g transform="matrix(1,0,0,1,-9237.85,-1112.37)">
        <g id="What" transform="matrix(0.21125,0,0,0.21125,9237.85,1112.37)">
            <rect x="0" y="0" width="2362.2" height="2362.2" style="fill:none;"/>
            <g transform="matrix(8.82994,4.04088e-16,-4.04088e-16,8.82994,-2560,-1070.24)">
                <path d="M496.794,241.242C500.022,241.242 503.118,242.524 505.401,244.807C507.683,247.089 508.965,250.185 508.965,253.413L508.965,334.394C508.965,337.622 507.683,340.718 505.401,343.001C503.118,345.283 500.022,346.565 496.794,346.565L415.813,346.565C412.585,346.565 409.49,345.283 407.207,343.001C404.924,340.718 403.642,337.622 403.642,334.394L403.642,253.413C403.642,250.185 404.924,247.089 407.207,244.807C409.49,242.524 412.585,241.242 415.813,241.242L496.794,241.242Z" style="fill:rgb(255,0,31);"/>
                <path d="M496.794,230.297C502.925,230.297 508.805,232.732 513.14,237.067C517.475,241.403 519.911,247.282 519.911,253.413L519.911,334.394C519.911,340.525 517.475,346.405 513.14,350.74C508.805,355.075 502.925,357.511 496.794,357.511L415.813,357.511C409.682,357.511 403.803,355.075 399.467,350.74C395.132,346.405 392.697,340.525 392.697,334.394L392.697,253.413C392.697,247.282 395.132,241.403 399.467,237.067C403.803,232.732 409.682,230.297 415.813,230.297L496.794,230.297ZM496.794,241.242L415.813,241.242C412.585,241.242 409.49,242.524 407.207,244.807C404.924,247.089 403.642,250.185 403.642,253.413L403.642,334.394C403.642,337.622 404.924,340.718 407.207,343.001C409.49,345.283 412.585,346.565 415.813,346.565L496.794,346.565C500.022,346.565 503.118,345.283 505.401,343.001C507.683,340.718 508.965,337.622 508.965,334.394L508.965,253.413C508.965,250.185 507.683,247.089 505.401,244.807C503.118,242.524 500.022,241.242 496.794,241.242Z"/>
            </g>
            <g transform="matrix(2.59133,0,0,2.59133,-151.263,-20.3705)">
                <path d="M206.987,211.392C191.689,226.691 166.848,226.691 151.55,211.392C136.252,196.094 136.252,171.253 151.55,155.955C182.025,125.48 234.11,107.265 278.734,111.061C310.608,113.772 338.503,127.154 356.29,150.618C368.316,166.482 376.242,187.297 376.242,214.224C376.242,261.234 365.347,288.261 351.654,304.674C337.268,321.918 317.622,329.935 293.952,333.384L293.952,356.438C293.952,378.074 276.387,395.638 254.752,395.638C233.117,395.638 215.552,378.074 215.552,356.438L215.552,296.514C215.552,274.865 233.102,257.314 254.752,257.314C263.19,257.314 271.204,256.926 278.669,256.926C288.245,256.926 292.899,253.853 294.932,245.665C296.965,237.478 297.842,227.164 297.842,214.224C297.842,207.464 296.832,201.963 293.813,197.98C289.024,191.663 280.671,189.909 272.09,189.179C249.331,187.243 222.53,195.85 206.987,211.392ZM255.499,415.364C280.901,415.364 301.524,435.987 301.524,461.389C301.524,486.791 280.901,507.414 255.499,507.414C230.097,507.414 209.474,486.791 209.474,461.389C209.474,435.987 230.097,415.364 255.499,415.364Z" style="fill:rgb(255,172,31);"/>
                <path d="M331.003,362.603C329.784,377.864 324.077,391.869 315.205,403.295C329.816,418.308 338.82,438.806 338.82,461.389C338.82,507.375 301.485,544.71 255.499,544.71C209.513,544.71 172.178,507.375 172.178,461.389C172.178,439.231 180.846,419.082 194.973,404.15C184.513,391.065 178.256,374.477 178.256,356.438L178.256,296.514C178.256,283.166 181.674,270.617 187.684,259.694C165.402,262.143 142.246,254.833 125.177,237.765C95.324,207.911 95.324,159.436 125.177,129.583C162.757,92.003 226.868,69.218 281.895,73.899C324.866,77.553 362.031,96.453 386.011,128.087C402.325,149.607 413.538,177.697 413.538,214.224C413.538,273.946 397.689,307.715 380.293,328.566C366.817,344.719 350.33,355.649 331.003,362.603ZM206.987,211.392C222.53,195.85 249.331,187.243 272.09,189.179C280.671,189.909 289.024,191.663 293.813,197.98C296.832,201.963 297.842,207.464 297.842,214.224C297.842,227.164 296.965,237.478 294.932,245.665C292.899,253.853 288.245,256.926 278.669,256.926C271.204,256.926 263.19,257.314 254.752,257.314C233.102,257.314 215.552,274.865 215.552,296.514L215.552,356.438C215.552,378.074 233.117,395.638 254.752,395.638C276.387,395.638 293.952,378.074 293.952,356.438L293.952,333.384C317.622,329.935 337.268,321.918 351.654,304.674C365.347,288.261 376.242,261.234 376.242,214.224C376.242,187.297 368.316,166.482 356.29,150.618C338.503,127.154 310.608,113.772 278.734,111.061C234.11,107.265 182.025,125.48 151.55,155.955C136.252,171.253 136.252,196.094 151.55,211.392C166.848,226.691 191.689,226.691 206.987,211.392ZM255.499,415.364C230.097,415.364 209.474,435.987 209.474,461.389C209.474,486.791 230.097,507.414 255.499,507.414C280.901,507.414 301.524,486.791 301.524,461.389C301.524,435.987 280.901,415.364 255.499,415.364Z"/>
            </g>
        </g>
    </g>
</svg>
