<?xml version="1.0" encoding="UTF-8" standalone="no"?>
<!DOCTYPE svg PUBLIC "-//W3C//DTD SVG 1.1//EN" "http://www.w3.org/Graphics/SVG/1.1/DTD/svg11.dtd">
<svg width="100%" height="100%" viewBox="0 0 500 500" version="1.1" xmlns="http://www.w3.org/2000/svg" xmlns:xlink="http://www.w3.org/1999/xlink" xml:space="preserve" xmlns:serif="http://www.serif.com/" style="fill-rule:evenodd;clip-rule:evenodd;stroke-linecap:round;stroke-linejoin:round;stroke-miterlimit:1.5;">
    <g transform="matrix(1,0,0,1,-3277.02,-3220.42)">
        <g id="Will" transform="matrix(0.21125,0,0,0.21125,3277.02,3220.42)">
            <rect x="0" y="0" width="2362.2" height="2362.2" style="fill:none;"/>
            <g transform="matrix(2.94559e-16,6.4997,5.65511,-4.49708e-16,859.526,-173.583)">
                <path d="M247.221,147.888L270.054,147.888C273.147,147.888 275.914,150.094 276.998,153.423C278.081,156.752 277.253,160.504 274.92,162.837C255.085,182.673 220.782,216.976 205.362,232.396C200.827,236.93 194.078,236.93 189.544,232.396C174.124,216.976 139.821,182.673 119.985,162.837C117.652,160.504 116.825,156.752 117.908,153.423C118.992,150.094 121.759,147.888 124.852,147.888C135.992,147.888 147.684,147.888 147.684,147.888L147.684,30.596C147.684,23.193 152.906,17.192 159.347,17.192L235.559,17.192C242,17.192 247.221,23.193 247.221,30.596C247.221,63.928 247.221,147.888 247.221,147.888Z" style="fill:rgb(255,172,31);"/>
                <path d="M262.091,130.798L262.091,30.596L261.552,24.468L260,18.721L257.551,13.534L254.32,9.033L250.404,5.32L245.891,2.505L240.89,0.721L235.559,0.101L159.347,0.101L154.015,0.721L149.015,2.505L144.502,5.32L140.586,9.033L137.355,13.534L134.906,18.721L133.354,24.468L132.815,30.596L132.815,130.798L124.852,130.798L118.126,131.992L112.152,135.364L107.311,140.613L103.981,147.435L102.598,155.093L103.252,162.705L105.833,169.756L110.225,175.731L179.784,245.289L183.788,248.606L188.159,250.987L192.754,252.413L197.453,252.887L202.152,252.413L206.747,250.987L211.118,248.606L215.122,245.289L284.68,175.731L289.073,169.756L291.653,162.705L292.308,155.093L290.924,147.435L287.595,140.613L282.753,135.364L276.78,131.992L270.054,130.798L262.091,130.798ZM247.221,147.888L270.054,147.888C273.147,147.888 275.914,150.094 276.998,153.423C278.081,156.752 277.253,160.504 274.92,162.837L205.362,232.396C200.827,236.93 194.078,236.93 189.544,232.396L119.985,162.837C117.652,160.504 116.825,156.752 117.908,153.423C118.992,150.094 121.759,147.888 124.852,147.888L147.684,147.888L147.684,30.596C147.684,23.193 152.906,17.192 159.347,17.192L235.559,17.192C242,17.192 247.221,23.193 247.221,30.596L247.221,147.888Z"/>
            </g>
            <g transform="matrix(0.784187,0,0,0.784187,-188.417,183.597)">
                <g transform="matrix(4.69468,0,0,4.69468,10.0799,-1.40053)">
                    <path d="M258.159,88.72C353.73,88.72 421.32,156.311 421.32,251.881C421.32,347.452 353.73,415.043 258.159,415.043C162.589,415.043 94.998,347.452 94.998,251.881C94.998,156.311 162.589,88.72 258.159,88.72Z" style="fill:white;"/>
                    <path d="M258.159,62.468C369.106,62.468 447.572,140.934 447.572,251.881C447.572,362.829 369.106,441.295 258.159,441.295C147.212,441.295 68.746,362.829 68.746,251.881C68.746,140.934 147.212,62.468 258.159,62.468ZM258.159,88.72C162.589,88.72 94.998,156.311 94.998,251.881C94.998,347.452 162.589,415.043 258.159,415.043C353.73,415.043 421.32,347.452 421.32,251.881C421.32,156.311 353.73,88.72 258.159,88.72Z"/>
                </g>
                <g transform="matrix(4.69468,0,0,4.69468,10.0799,-1.40053)">
                    <path d="M258.159,251.881L312.905,312.241" style="fill:none;stroke:black;stroke-width:26.25px;"/>
                </g>
                <g transform="matrix(4.69468,0,0,4.69468,10.0799,-1.40053)">
                    <path d="M258.159,251.881L377.726,182.85" style="fill:none;stroke:black;stroke-width:26.25px;"/>
                </g>
                <g transform="matrix(0.98815,0,0,0.98815,14.4811,13.9959)">
                    <g transform="matrix(6.9183,0,0,6.9183,-563.967,-268.893)">
                        <circle cx="258.159" cy="115.979" r="10.354" style="fill-opacity:0.4;"/>
                    </g>
                    <g transform="matrix(6.9183,0,0,6.9183,-563.967,1026.35)">
                        <circle cx="258.159" cy="115.979" r="10.354" style="fill-opacity:0.4;"/>
                    </g>
                    <g transform="matrix(4.23624e-16,6.9183,-6.9183,4.23624e-16,2672.05,-604.92)">
                        <circle cx="258.159" cy="115.979" r="10.354" style="fill-opacity:0.4;"/>
                    </g>
                    <g transform="matrix(4.23624e-16,6.9183,-6.9183,4.23624e-16,1376.81,-604.92)">
                        <circle cx="258.159" cy="115.979" r="10.354" style="fill-opacity:0.4;"/>
                    </g>
                    <g transform="matrix(6.06836,3.50357,-3.50357,6.06836,389.761,-995.232)">
                        <circle cx="258.159" cy="115.979" r="10.354" style="fill-opacity:0.4;"/>
                    </g>
                    <g transform="matrix(6.06836,3.50357,-3.50357,6.06836,-266.176,140.883)">
                        <circle cx="258.159" cy="115.979" r="10.354" style="fill-opacity:0.4;"/>
                    </g>
                    <g transform="matrix(-3.50357,6.06836,-6.06836,-3.50357,3398.39,348.808)">
                        <circle cx="258.159" cy="115.979" r="10.354" style="fill-opacity:0.4;"/>
                    </g>
                    <g transform="matrix(-3.50357,6.06836,-6.06836,-3.50357,2262.27,-307.129)">
                        <circle cx="258.159" cy="115.979" r="10.354" style="fill-opacity:0.4;"/>
                    </g>
                    <g transform="matrix(3.50357,6.06836,-6.06836,3.50357,1589.43,-1119.81)">
                        <circle cx="258.159" cy="115.979" r="10.354" style="fill-opacity:0.4;"/>
                    </g>
                    <g transform="matrix(3.50357,6.06836,-6.06836,3.50357,453.319,-463.87)">
                        <circle cx="258.159" cy="115.979" r="10.354" style="fill-opacity:0.4;"/>
                    </g>
                    <g transform="matrix(-6.06836,3.50357,-3.50357,-6.06836,3522.96,1548.48)">
                        <circle cx="258.159" cy="115.979" r="10.354" style="fill-opacity:0.4;"/>
                    </g>
                    <g transform="matrix(-6.06836,3.50357,-3.50357,-6.06836,2867.03,412.366)">
                        <circle cx="258.159" cy="115.979" r="10.354" style="fill-opacity:0.4;"/>
                    </g>
                </g>
            </g>
        </g>
    </g>
</svg>
