<?xml version="1.0" encoding="UTF-8" standalone="no"?>
<!DOCTYPE svg PUBLIC "-//W3C//DTD SVG 1.1//EN" "http://www.w3.org/Graphics/SVG/1.1/DTD/svg11.dtd">
<svg width="100%" height="100%" viewBox="0 0 500 500" version="1.1" xmlns="http://www.w3.org/2000/svg" xmlns:xlink="http://www.w3.org/1999/xlink" xml:space="preserve" xmlns:serif="http://www.serif.com/" style="fill-rule:evenodd;clip-rule:evenodd;stroke-linejoin:round;stroke-miterlimit:2;">
    <g transform="matrix(1,0,0,1,-1638.4,-1101.1)">
        <g id="Window" transform="matrix(0.21125,0,0,0.21125,1638.4,1101.1)">
            <rect x="0" y="0" width="2362.2" height="2362.2" style="fill:none;"/>
            <g transform="matrix(1.12446,0,0,1.12446,-238.679,-211.239)">
                <g transform="matrix(5.54161,0,0,5.54161,-9386.71,223.989)">
                    <path d="M2039.38,41.164C2047.54,39.314 2056.11,41.28 2062.65,46.506C2069.19,51.732 2073,59.651 2073,68.024C2073,113.292 2073,191.365 2073,228.561C2073,240.905 2064.79,251.742 2052.9,255.077C2002.3,269.279 1869.14,306.648 1805.39,324.537C1797.1,326.866 1788.18,325.176 1781.32,319.969C1774.45,314.762 1770.41,306.64 1770.41,298.021L1770.41,124.079C1770.41,111.213 1779.32,100.061 1791.87,97.219C1843.83,85.45 1976.74,55.35 2039.38,41.164Z" style="fill:rgb(141,108,83);"/>
                    <path d="M2035.88,25.728C2048.74,22.816 2062.23,25.912 2072.53,34.141C2082.83,42.37 2088.83,54.839 2088.83,68.024L2088.83,228.561C2088.83,247.999 2075.89,265.063 2057.18,270.315L1809.67,339.775C1796.6,343.442 1782.57,340.78 1771.76,332.582C1760.94,324.383 1754.59,311.593 1754.59,298.021L1754.59,124.079C1754.59,103.819 1768.61,86.258 1788.37,81.783L2035.88,25.728ZM2039.38,41.164L1791.87,97.219C1779.32,100.061 1770.41,111.213 1770.41,124.079L1770.41,298.021C1770.41,306.64 1774.45,314.762 1781.32,319.969C1788.18,325.176 1797.1,326.866 1805.39,324.537L2052.9,255.077C2064.79,251.742 2073,240.905 2073,228.561L2073,68.024C2073,59.651 2069.19,51.732 2062.65,46.506C2056.11,41.28 2047.54,39.314 2039.38,41.164Z"/>
                </g>
                <g transform="matrix(1.91017,0,0,1.91017,-2878.58,1184.03)">
                    <path d="M2036.93,18.666C2045.54,16.367 2054.73,18.2 2061.79,23.626C2068.86,29.052 2073,37.455 2073,46.364C2073,97.105 2073,186.23 2073,227.42C2073,240.404 2064.27,251.768 2051.73,255.118C1983.2,273.423 1772.62,329.673 1772.62,329.673L1772.62,89.268C1772.62,89.268 1957.13,39.982 2036.93,18.666Z" style="fill:white;"/>
                </g>
                <g transform="matrix(1.91017,0,0,1.91017,-2878.58,1184.03)">
                    <path d="M2154.23,312.974C2158.8,311.693 2162.12,307.738 2162.58,303.014C2163.04,298.291 2160.56,293.768 2156.32,291.624C2134.63,280.639 2104.71,265.493 2087.26,256.655C2078.08,252.006 2067.5,250.905 2057.56,253.56C1996.16,269.96 1772.62,329.673 1772.62,329.673L1772.62,352.708C1772.62,368.668 1780.09,383.708 1792.8,393.35C1805.52,402.992 1822.02,406.125 1837.39,401.816C1928.09,376.383 2089.13,331.228 2154.23,312.974Z" style="fill:rgb(178,139,108);"/>
                </g>
                <g transform="matrix(1.91017,0,0,1.91017,-2878.58,684.863)">
                    <path d="M2073,30.796L2073,189.09C2073,205.78 2061.65,220.331 2045.46,224.388C1971.23,242.989 1772.62,292.765 1772.62,292.765L1772.62,134.208C1772.62,114.512 1786.19,97.416 1805.38,92.96C1883.26,74.869 2073,30.796 2073,30.796Z" style="fill:white;"/>
                </g>
                <g transform="matrix(1.91017,0,0,1.91017,-2188.78,979.897)">
                    <path d="M2108.79,32.062C2100.62,29.069 2091.51,30.252 2084.38,35.233C2077.25,40.213 2073,48.362 2073,57.059C2073,92.786 2073,147.039 2073,190.369C2073,231.093 2045.74,266.777 2006.44,277.482C1944.32,294.407 1854.06,318.998 1805.12,332.334C1800.4,333.619 1797.07,337.825 1796.9,342.712C1796.73,347.598 1799.76,352.026 1804.38,353.637C1826.01,361.184 1853.63,370.82 1873.65,377.803C1890.93,383.831 1909.62,384.563 1927.32,379.905C1982.93,365.271 2109.77,331.891 2172.15,315.476C2193.38,309.891 2208.19,290.736 2208.27,268.789C2208.41,226.023 2208.65,155.985 2208.8,111.156C2208.89,85.716 2193.04,62.944 2169.15,54.189C2150.05,47.187 2127.34,38.862 2108.79,32.062Z" style="fill:rgb(178,139,108);"/>
                </g>
                <g transform="matrix(1.91017,0,0,1.91017,-2188.78,979.897)">
                    <path d="M2037.22,28.107C2045.8,25.91 2054.91,27.802 2061.91,33.232C2068.91,38.663 2073,47.023 2073,55.88L2073,239.75C2073,252.763 2064.24,264.143 2051.66,267.468C2000.42,281.008 1870.02,315.468 1806.4,332.277C1797.81,334.55 1788.64,332.702 1781.59,327.274C1774.54,321.847 1770.41,313.455 1770.41,304.56C1770.41,252.839 1770.41,160.86 1770.41,118.681C1770.41,105.586 1779.28,94.156 1791.97,90.908C1843.41,77.735 1973.77,44.353 2037.22,28.107Z" style="fill:white;"/>
                </g>
                <g transform="matrix(1.91017,0,0,1.91017,-2188.78,485.466)">
                    <path d="M2073,50.896L2073,204.206C2073,219.311 2062.77,232.497 2048.13,236.244C1996.14,249.557 1875.49,280.451 1811.69,296.79C1801.79,299.325 1791.28,297.142 1783.2,290.878C1775.13,284.613 1770.41,274.969 1770.41,264.752C1770.41,209.652 1770.41,120.67 1770.41,120.67L2073,50.896Z" style="fill:white;"/>
                </g>
                <g transform="matrix(1.91017,0,0,1.91017,-2188.78,480.733)">
                    <path d="M2073,50.896L2073,215.219C2073,223.82 2078.89,231.304 2087.24,233.332C2105.96,237.873 2139.64,246.046 2166.84,252.644C2176.99,255.108 2187.72,252.775 2195.93,246.315C2204.15,239.854 2208.95,229.981 2208.95,219.53C2208.95,177.775 2208.95,114.638 2208.95,70.72C2208.95,58.516 2203.4,46.972 2193.88,39.34C2184.36,31.708 2171.88,28.815 2159.97,31.475C2121.01,40.174 2073,50.896 2073,50.896Z" style="fill:rgb(178,139,108);"/>
                </g>
            </g>
        </g>
    </g>
</svg>
